<?xml version="1.0" encoding="utf-8"?>
<!-- Generator: Adobe Illustrator 24.2.1, SVG Export Plug-In . SVG Version: 6.00 Build 0)  -->
<svg version="1.1" id="SST_PMS_Large_Format" xmlns="http://www.w3.org/2000/svg" xmlns:xlink="http://www.w3.org/1999/xlink"
	 x="0px" y="0px" viewBox="0 0 491.47 322.53" enable-background="new 0 0 491.47 322.53" xml:space="preserve">
<g>
	<rect fill="#FFFFFF" width="491.47" height="322.41"/>
	<path id="ST-_small_R_1_" fill="#FF5308" d="M453.13,280.39c-1.74,0-3.07,1.37-3.07,3.15c0,1.82,1.33,3.19,3.07,3.19
		c1.72,0,3.05-1.37,3.05-3.19C456.18,281.76,454.85,280.39,453.13,280.39z M454.25,285.73l-1.18-1.87h-0.72v1.87h-0.68v-4.34h1.68
		c1.03,0,1.52,0.41,1.52,1.24c0,0.79-0.5,1.11-1.14,1.18l1.24,1.92H454.25z M23,153.03v146.38h445.46V153.03H23z M379.73,193.08
		c1.45-1.43,3.17-2.15,5.17-2.15c2.03,0,3.76,0.72,5.21,2.17c1.45,1.45,2.17,3.17,2.17,5.17c0,2.03-0.72,3.76-2.15,5.21
		c-1.43,1.45-3.16,2.17-5.19,2.17c-2.08,0-3.84-0.72-5.25-2.15c-1.42-1.43-2.13-3.21-2.13-5.32
		C377.56,196.21,378.28,194.51,379.73,193.08z M94.55,247.03c-2.11,1.97-4.88,3.39-8.29,4.26c-3.01,0.78-5.76,1.17-8.25,1.17
		c-3.16,0-6.72-0.62-10.68-1.87c-2.2-0.69-4.33-1.84-6.38-3.43l-2.08,4.39h-6.51v-20.78h7.17c0.52,2.92,3.62,7.27,5.12,8.75
		c2.92,2.89,6.4,4.34,10.42,4.34c2.78,0,4.98-0.65,6.6-1.93c1.62-1.29,2.43-3.02,2.43-5.19c0-2.09-0.66-3.68-1.98-4.8
		c-1.32-1.11-3.67-2.06-7.06-2.84c-9.67-2.23-15.94-4.8-18.8-7.73c-3.16-3.27-4.73-7.43-4.73-12.46c0-5.39,1.5-9.64,4.52-12.76
		c3.94-4.11,9.67-6.17,17.2-6.17c3.47,0,6.35,0.36,8.62,1.07c2.27,0.71,4.72,2.02,7.36,3.93l1.61-2.19h6.64v16.11h-7.34
		c-0.46-2.84-3.63-5.93-5.08-7.15c-2.63-2.2-5.92-3.3-9.86-3.3c-2.58,0-4.56,0.68-5.95,2.04c-1.3,1.27-1.95,2.88-1.95,4.82
		c0,1.68,0.52,2.97,1.56,3.89c1.04,0.91,2.88,1.69,5.51,2.32c6.02,1.45,10.36,2.67,13.03,3.67c2.66,1,4.91,2.24,6.73,3.71
		c4.08,3.36,6.12,8.11,6.12,14.24C100.24,238.87,98.34,243.5,94.55,247.03z M131.46,237.22c0,2.75-0.17,4.85-0.5,6.3
		c-0.33,1.45-0.98,2.81-1.93,4.08c-2.4,3.24-6.14,4.86-11.2,4.86c-5.24,0-8.92-1.72-11.03-5.17c-0.87-1.39-1.43-2.78-1.67-4.19
		c-0.25-1.4-0.37-3.81-0.37-7.23v-19.72h-4.39v-6.6c5.99-0.98,9.38-6.57,10.16-16.76h8.77v16.2h8.68v7.16h-8.68v21.93
		c0,2.4,0.15,3.97,0.43,4.69c0.43,0.98,1.09,1.47,1.95,1.47c1.01,0,1.71-0.65,2.08-1.95c0.38-1.3,0.56-3.76,0.56-7.38v-3.91h7.12
		V237.22z M169.46,223.63c-1.27,1.54-2.95,2.3-5.04,2.3c-1.91,0-3.42-0.75-4.52-2.26c-0.87-1.22-1.3-2.55-1.3-3.99
		c0-1.33,0.3-2.42,0.89-3.26c0.59-0.84,1.56-1.55,2.89-2.13c-0.9-0.46-1.62-0.69-2.17-0.69c-1.8,0-3.28,1.19-4.45,3.56
		c-1.17,2.37-1.76,5.39-1.76,9.03v13.2c0,1.71,0.22,2.83,0.65,3.37c0.43,0.54,1.33,0.8,2.69,0.8h0.55v7.17h-22.62v-7.17h0.75
		c1.33,0,2.21-0.27,2.63-0.8c0.42-0.54,0.63-1.66,0.63-3.37v-19.06c0-1.71-0.21-2.83-0.63-3.37c-0.42-0.54-1.3-0.81-2.63-0.81h-2.08
		v-7.16h18.76v4.21c1.71-2,3.28-3.39,4.73-4.19c1.45-0.8,3.13-1.19,5.04-1.19c2.26,0,4.15,0.64,5.69,1.91
		c2.14,1.8,3.21,4.4,3.21,7.82C171.37,220.06,170.73,222.09,169.46,223.63z M210.35,246.25c-3.91,4-9.19,5.99-15.85,5.99
		c-6.72,0-12.03-2-15.94-5.99c-3.91-3.94-5.86-9.51-5.86-16.72c0-6.83,1.95-12.2,5.86-16.11c3.97-3.97,9.26-5.95,15.89-5.95
		c6.66,0,11.96,1.98,15.89,5.95c3.91,3.94,5.86,9.42,5.86,16.46C216.22,236.85,214.26,242.31,210.35,246.25z M264.21,243.55v7.17
		h-21.09v-7.17h0c1.27,0,2.11-0.27,2.52-0.8c0.41-0.54,0.61-1.66,0.61-3.37v-16.11c0-4.98-1.59-7.47-4.78-7.47
		c-1.82,0-3.22,0.81-4.19,2.43c-0.97,1.62-1.46,3.97-1.46,7.03v14.11c0,1.71,0.2,2.83,0.61,3.37c0.41,0.54,1.24,0.8,2.52,0.8h0v7.17
		h-21.11v-7.17h0.01c1.33,0,2.21-0.27,2.63-0.8c0.42-0.54,0.63-1.66,0.63-3.37v-19.06c0-1.71-0.21-2.83-0.63-3.37
		c-0.42-0.54-1.3-0.81-2.63-0.81h-0.57v-7.16h17.25v6.47c2.14-2.87,4.15-4.79,6.04-5.77c2.4-1.24,5.02-1.87,7.86-1.87
		c4.28,0,7.54,1.2,9.77,3.61c1.07,1.16,1.8,2.58,2.19,4.28l0.59,7.58v16.11c0,1.71,0.21,2.83,0.63,3.37
		C262,243.29,262.88,243.55,264.21,243.55L264.21,243.55z M305.97,211.86c-1.13,0-2.63,0.95-4.52,2.87c0.98,1.65,1.67,3.18,2.06,4.6
		c0.39,1.42,0.59,3.05,0.59,4.91c0,2.72-0.54,5.25-1.63,7.58c-1.09,2.33-2.55,4.15-4.41,5.45c-3.47,2.4-7.59,3.61-12.33,3.61
		c-2.11,0-4.75-0.52-7.9-1.56c-0.49,0.95-0.74,1.74-0.74,2.34c0,1.39,0.72,2.29,2.15,2.69c1.43,0.4,4.59,0.61,9.49,0.61
		c0.61,0,1.42,0,2.43,0c2.55-0.03,4.17-0.04,4.86-0.04c4.92,0,8.5,0.96,10.72,2.87c2.26,2,3.39,4.88,3.39,8.64
		c0,2.29-0.51,4.38-1.52,6.27c-1.01,1.9-2.4,3.4-4.17,4.5c-3.07,1.85-9.06,2.78-17.98,2.78c-12.91,0-19.37-2.88-19.37-8.64
		c0-1.8,0.48-3.23,1.43-4.3c0.95-1.07,2.58-2,4.86-2.78c-2.06-1.42-3.5-2.79-4.34-4.13c-0.84-1.33-1.26-2.94-1.26-4.82
		c0-1.94,0.45-3.52,1.35-4.75s2.52-2.47,4.86-3.71c-1.85-2.37-3.11-4.44-3.78-6.19c-0.67-1.75-1-3.84-1-6.27
		c0-5.93,1.94-10.39,5.82-13.37c3.07-2.35,7.07-3.55,11.98-3.52c2.4,0.02,4.44,0.28,6.1,0.85c1.67,0.56,3.6,1.63,5.8,3.19
		c1.74-1.53,3.21-2.58,4.41-3.15c1.2-0.56,2.57-0.85,4.1-0.85c2.89,0,5.18,1,6.86,2.99c1.3,1.54,1.95,3.42,1.95,5.65
		c0,2.64-0.83,4.49-2.48,5.56c-0.9,0.58-1.87,0.87-2.91,0.87c-1.42,0-2.61-0.49-3.58-1.48s-1.45-2.2-1.45-3.65
		c0-1.42,0.68-2.94,2.04-4.56C307.18,212.2,306.55,211.86,305.97,211.86z M312.44,226.26h19.03v9.67h-19.03V226.26z M371.89,208.98
		h-7.21c-0.12-3.18-1.64-4.88-2.48-6.07c-0.93-1.3-1.97-2.21-3.13-2.71c-1.16-0.51-2.81-0.78-4.95-0.81v36.48
		c0,2.81,0.06,4.52,0.17,5.12c0.12,0.61,0.45,1.04,1,1.3c0.95,0.46,1.77,0.74,5.13,0.83v7.6h-28.98v-7.6
		c3.33-0.06,4.16-0.32,5.18-0.78c0.52-0.26,0.84-0.69,0.96-1.28c0.11-0.59,0.17-2.29,0.17-5.1v-36.56c-2.63,0.03-4.57,0.46-5.82,1.3
		c-1.65,1.1-4.59,4.23-4.73,8.29H320v-17.53h51.89V208.98z M396.63,250.72h-22.42v-7.17h1.05c1.53,0,2.53-0.26,3-0.78
		c0.46-0.52,0.69-1.65,0.69-3.39v-17.85c0-2.43-0.18-3.91-0.54-4.43c-0.36-0.52-1.37-0.78-3.02-0.78h-1.18v-7.34h18.9v30.4
		c0,1.77,0.19,2.9,0.56,3.41c0.38,0.51,1.22,0.76,2.52,0.76h0.44V250.72z M439.42,231.7h-25.84c0.06,2.46,0.22,4.33,0.48,5.6
		c0.26,1.27,0.71,2.43,1.35,3.47c1.24,2.09,3.23,3.13,5.95,3.13c2.78,0,4.91-0.91,6.38-2.74c0.72-0.93,1.26-2.45,1.61-4.56h9.47
		c-2.46,10.42-8.8,15.63-19.02,15.63c-5.5,0-9.99-1.65-13.46-4.95c-4.4-4.17-6.6-9.94-6.6-17.32c0-6.49,1.68-11.77,5.04-15.85
		c3.5-4.28,8.5-6.43,14.98-6.43c6.19,0,11.03,1.97,14.5,5.93c3.47,3.95,5.21,9.44,5.21,16.48
		C439.46,230.27,439.45,230.8,439.42,231.7z M453.13,287.28c-2.04,0-3.75-1.6-3.75-3.74c0-2.1,1.71-3.7,3.75-3.7
		c2.03,0,3.73,1.6,3.73,3.7C456.86,285.68,455.16,287.28,453.13,287.28z M199,218.26c0.85,2.16,1.28,6.03,1.28,11.61
		c0,5.47-0.42,9.35-1.26,11.64c-0.81,2.11-2.33,3.17-4.56,3.17c-2.2,0-3.72-1.08-4.56-3.23c-0.84-2.16-1.26-6.09-1.26-11.79
		c0-5.38,0.42-9.19,1.26-11.42c0.81-2.14,2.33-3.21,4.56-3.21C196.63,215.03,198.14,216.1,199,218.26z M278.57,257.07
		c2.03-0.52,5.48-0.78,10.38-0.78c4.17,0,7.54,0.23,10.12,0.69c1.97,0.38,2.95,1.24,2.95,2.61c0,0.87-0.28,1.53-0.83,1.98
		c-0.55,0.45-1.59,0.83-3.13,1.15c-2.23,0.49-5.44,0.74-9.64,0.74c-8.6,0-12.9-1.24-12.9-3.73
		C275.53,258.47,276.54,257.59,278.57,257.07z M289.76,215.51c0.57,1.66,0.85,4.57,0.85,8.73c0,3.93-0.3,6.73-0.91,8.41
		c-0.61,1.67-1.62,2.51-3.03,2.51c-2.49,0-3.73-3.57-3.73-10.7c0-4.07,0.3-7,0.91-8.78c0.61-1.78,1.6-2.67,2.99-2.67
		S289.2,213.85,289.76,215.51z M424.74,217.98c0.75,1.33,1.17,3.52,1.26,6.56h-12.2c0.2-3.13,0.62-5.27,1.26-6.43
		c0.46-0.84,1.16-1.52,2.08-2.06c0.93-0.54,1.88-0.8,2.87-0.8C422.12,215.24,423.7,216.15,424.74,217.98z M453.06,283.31h-0.71
		v-1.38h0.9c0.46,0,0.95,0.09,0.95,0.67C454.2,283.28,453.66,283.31,453.06,283.31z"/>
	<path id="SIMPSON_-BLACK_2_" d="M23,23v118.53h445.46V23H23z M79.4,114.17c-13.58,0-25.58-5.96-25.66-21.11h15.4
		c0.33,6.95,4.64,9.19,11.18,9.19c4.64,0,9.44-1.66,9.44-6.04c0-5.22-8.44-6.21-16.97-8.61c-8.44-2.4-17.3-6.21-17.3-17.05
		c0-12.91,13-17.96,24.09-17.96c11.76,0,23.59,5.71,23.68,19.04h-15.4c0.25-5.38-4.8-7.12-9.52-7.12c-3.31,0-7.45,1.16-7.45,5.05
		c0,4.55,8.53,5.38,17.14,7.78c8.53,2.4,17.14,6.37,17.14,17.05C105.15,109.37,92.4,114.17,79.4,114.17z M127.74,112.93h-15.4v-59.1
		h15.4V112.93z M203.78,112.93h-14.49V68.07h-0.16l-12.42,44.87h-11.76l-12.42-44.87h-0.16v44.87h-14.49v-59.1h22.68l10.18,39.4
		h0.16l10.18-39.4h22.68V112.93z M241.14,93.23h-12.67v19.7h-15.4v-59.1h28.06c11.01,0,21.36,5.05,21.36,19.04
		C262.5,87.52,254.14,93.23,241.14,93.23z M290.73,114.17c-13.58,0-25.58-5.96-25.66-21.11h15.4c0.33,6.95,4.64,9.19,11.18,9.19
		c4.64,0,9.44-1.66,9.44-6.04c0-5.22-8.44-6.21-16.97-8.61c-8.45-2.4-17.3-6.21-17.3-17.05c0-12.91,13-17.96,24.09-17.96
		c11.76,0,23.59,5.71,23.67,19.04h-15.4c0.25-5.38-4.8-7.12-9.52-7.12c-3.31,0-7.45,1.16-7.45,5.05c0,4.55,8.53,5.38,17.14,7.78
		c8.53,2.4,17.14,6.37,17.14,17.05C316.47,109.37,303.72,114.17,290.73,114.17z M350.58,114.17c-18.63,0-29.14-13.66-29.14-30.79
		c0-17.14,10.51-30.8,29.14-30.8c18.62,0,29.14,13.66,29.14,30.8C379.71,100.52,369.2,114.17,350.58,114.17z M437.24,112.93h-15.81
		L400.9,76.09h-0.17v36.84h-14.49v-59.1h15.81l20.53,36.42h0.17V53.83h14.49V112.93z M247.1,73.94c0,5.38-3.48,7.37-8.28,7.37
		h-10.35V66.16h10.35C243.54,66.16,247.1,68.4,247.1,73.94z M364.32,83.38c0,8.78-3.81,17.55-13.74,17.55
		c-9.93,0-13.74-8.78-13.74-17.55s3.81-17.55,13.74-17.55C360.51,65.83,364.32,74.61,364.32,83.38z"/>
</g>
<g id="Guides">
</g>
<g>
</g>
<g>
</g>
<g>
</g>
<g>
</g>
<g>
</g>
<g>
</g>
</svg>
